<svg xmlns="http://www.w3.org/2000/svg" xmlns:xlink="http://www.w3.org/1999/xlink" width="170" height="44" viewBox="0 0 170 44">
    <defs>
        <path id="a" d="M18.388 21.077v-3.766h1.45v3.766h3.766v1.45h-3.767v3.766h-1.449v-3.767h-3.766v-1.449z"/>
    </defs>
    <g fill="none" fill-rule="evenodd">
        <path fill="#FFF" d="M54.527 29.621c-3.433 0-5.715-.853-5.715-4.137h2.516c0 1.43.682 1.876 3.241 1.876 2.752 0 3.306-.681 3.306-2.239 0-1.386-.64-1.577-1.706-1.663-3.135-.234-7.357.64-7.357-4.051 0-3.305 1.92-4.33 5.672-4.33 3.433 0 5.758.876 5.758 4.138h-2.474c0-1.685-1.173-1.877-3.326-1.877-2.837 0-3.114.533-3.114 2.026 0 1.322.598 1.493 1.6 1.578 3.134.256 7.485-.662 7.463 4.073-.02 3.199-2.005 4.606-5.864 4.606zm25.459-.17V18.404L76.339 29.45h-2.431l-3.604-11.045V29.45h-2.303V15.228h3.327l3.86 11.323 3.838-11.345h3.305V29.45h-2.345zm7.418-4.287c0 1.77.447 2.474 2.516 2.474.875 0 2.196-.128 2.218-1.3h2.26c0 2.793-2.601 3.283-4.563 3.283-4.18 0-4.84-2.217-4.84-5.245 0-3.114.596-5.503 4.776-5.503 4.542 0 4.755 2.667 4.755 6.291h-7.122zm2.367-4.307c-2.111 0-2.324.96-2.324 2.345h4.691c0-1.492-.128-2.345-2.367-2.345zm14.86 8.593v-.83c-.64.575-1.77 1.001-3.155 1.001-4.159 0-4.287-2.815-4.287-5.352 0-3.135.597-5.396 4.052-5.396 1.13 0 2.366.128 3.156.938v-5.224h2.41V29.45h-2.175zm-2.857-8.358c-1.791 0-2.175.746-2.175 3.177 0 2.43.384 3.177 2.175 3.177 2.069 0 2.666-.576 2.666-3.177 0-2.602-.597-3.177-2.666-3.177zm7.699 8.358V19.044h2.409V29.45h-2.41zm1.194-11.749c-.853 0-1.322-.49-1.322-1.322 0-.853.49-1.301 1.322-1.301.832 0 1.323.448 1.323 1.3 0 .833-.47 1.323-1.323 1.323zm11.167 11.75v-.853c-.662.575-1.748 1.023-3.242 1.023-2.474 0-4.051-.79-4.051-3.327 0-3.027 2.218-3.369 4.435-3.369h2.665c0-1.385-.084-2.004-2.196-2.004-.938 0-2.26.042-2.26 1.152h-2.346c0-2.666 2.325-3.2 4.734-3.2 2.793 0 4.415 1.11 4.415 3.796v6.781h-2.154zm-2.943-4.564c-1.47 0-1.94.256-1.94 1.365 0 .896.383 1.386 2.025 1.386 2.474 0 2.708-.938 2.708-2.751h-2.793zm11.73 4.563V15.228h2.517V27.19h7.058v2.26h-9.574zm12.249 0V19.044h2.41V29.45h-2.41zm1.194-11.749c-.853 0-1.323-.49-1.323-1.322 0-.853.49-1.301 1.323-1.301.832 0 1.322.448 1.322 1.3 0 .833-.47 1.323-1.322 1.323zm10.55 11.75V23.97c0-2.005.192-2.964-1.897-2.964-2.603 0-2.41 1.792-2.41 3.604v4.84h-2.41V19.044h2.09v.833c.597-.534 1.535-1.004 3.007-1.004 4.2 0 4.03 2.645 4.03 4.906v5.671h-2.41zm11.94 0l-4.435-4.863v4.862h-2.43V14.587h2.408v8.615l4.478-4.158h2.986l-5.139 4.777 5.225 5.63h-3.093z"/>
        <g>
            <path fill="#FB005B" d="M28.68 16.248l9.41 5.475v10.14c0 .35-.186.81-.565.996l-8.908 5.381-9.473-5.63-9.535 5.63L.7 32.86c-.378-.186-.564-.555-.564-.996V21.723l9.473-5.475.072-10.742L18.58.196c.347-.17.812-.17 1.192 0l8.763 5.382.145 10.67z"/>
            <path fill="#FC9320" d="M37.465 10.74c.346.186.532.555.625.996v10.141l-9.442 5.475V38.24l-8.941 5.164c-.362.17-.826.17-1.188 0L9.577 38.24V27.352L.136 21.877v-10.14c0-.35.185-.81.563-.996l8.95-5.236 9.433 5.485 9.441-5.413 8.942 5.164z"/>
            <path fill="#000" d="M4.047 13.069l15.035-8.796 15.096 8.796v17.466L19.082 39.33 4.047 30.535z"/>
            <use fill="#FFF" xlink:href="#a"/>
        </g>
    </g>
</svg>
