<svg xmlns="http://www.w3.org/2000/svg" width="165" height="40" viewBox="0 0 165 40">
    <defs>
        <linearGradient id="a" x1="50%" x2="50%" y1="99.552%" y2=".584%">
            <stop offset="0%" stop-color="#FF8D00"/>
            <stop offset="100%" stop-color="#FFAE36"/>
        </linearGradient>
    </defs>
    <g fill="none" fill-rule="nonzero">
        <g fill="#130D05">
            <path d="M50.537 27.322c-3.404 0-5.667-.846-5.667-4.103h2.495c0 1.418.677 1.86 3.213 1.86 2.729 0 3.279-.675 3.279-2.219 0-1.375-.636-1.565-1.692-1.65-3.108-.233-7.295.635-7.295-4.018 0-3.277 1.903-4.293 5.624-4.293 3.404 0 5.71.868 5.71 4.103H53.75c0-1.67-1.163-1.861-3.3-1.861-2.81 0-3.086.528-3.086 2.008 0 1.312.593 1.482 1.586 1.566 3.109.254 7.422-.655 7.4 4.04-.021 3.17-1.988 4.567-5.814 4.567M75.78 27.153V16.198l-3.615 10.955h-2.41L66.18 16.198v10.955h-2.285V13.048h3.3l3.827 11.228 3.806-11.249h3.277v14.126zM85.483 18.63c-2.094 0-2.305.953-2.305 2.326h4.653c0-1.48-.127-2.325-2.348-2.325zm-2.347 4.273c0 1.755.444 2.453 2.495 2.453.867 0 2.178-.127 2.2-1.292h2.24c0 2.772-2.58 3.257-4.524 3.257-4.145 0-4.8-2.199-4.8-5.202 0-3.087.591-5.455 4.736-5.455 4.503 0 4.714 2.643 4.714 6.239h-7.061zM97.385 18.863c-1.777 0-2.157.74-2.157 3.151 0 2.41.38 3.15 2.157 3.15 2.05 0 2.642-.57 2.642-3.15s-.591-3.15-2.642-3.15zm2.833 8.29v-.825c-.635.57-1.755.993-3.13.993-4.122 0-4.25-2.79-4.25-5.307 0-3.108.592-5.35 4.019-5.35 1.12 0 2.346.126 3.128.93v-5.18h2.39v14.739h-2.157zM105.018 16.833h2.389v10.32h-2.389v-10.32zm1.185-1.333c-.846 0-1.312-.485-1.312-1.31 0-.846.487-1.29 1.312-1.29.823 0 1.31.444 1.31 1.29 0 .825-.465 1.31-1.31 1.31zM114.357 22.627c-1.46 0-1.924.254-1.924 1.353 0 .889.38 1.376 2.008 1.376 2.453 0 2.686-.932 2.686-2.729h-2.77zm2.917 4.526v-.846c-.655.571-1.732 1.014-3.213 1.014-2.453 0-4.017-.782-4.017-3.298 0-3.003 2.199-3.341 4.397-3.341h2.643c0-1.375-.084-1.988-2.178-1.988-.93 0-2.24.042-2.24 1.142h-2.327c0-2.644 2.305-3.172 4.694-3.172 2.771 0 4.378 1.099 4.378 3.764v6.725h-2.137zM125.989 27.153V13.048h2.495V24.91h6.998v2.242zM138.133 16.833h2.39v10.32h-2.39v-10.32zm1.184-1.333c-.846 0-1.31-.485-1.31-1.31 0-.846.485-1.29 1.31-1.29.824 0 1.311.444 1.311 1.29 0 .825-.466 1.31-1.311 1.31zM149.779 27.153v-5.435c0-1.988.19-2.94-1.883-2.94-2.58 0-2.39 1.777-2.39 3.574v4.8h-2.388v-10.32h2.072v.826c.593-.529 1.522-.995 2.982-.995 4.165 0 3.995 2.624 3.995 4.864v5.626h-2.388zM161.617 27.153l-4.399-4.822v4.822h-2.41v-14.74h2.39v8.543l4.44-4.123h2.96l-5.096 4.737 5.181 5.583z"/>
        </g>
        <path fill="#FF256E" d="M17.512 19.977v10.034l-8.693 5.02-8.518-4.919a.351.351 0 0 1-.174-.301v-9.839l8.692-5.02V4.92L17.164.101a.694.694 0 0 1 .696 0l8.344 4.818v10.04l-8.692 5.018zm17.042 10.24l-8.344 4.82-8.693-5.02v-10.04l8.693-5.02 8.692 5.02v9.638a.696.696 0 0 1-.348.602z"/>
        <path fill="url(#a)" d="M17.512 19.972l-8.693 5.02-8.692-5.02v-9.838c0-.125.067-.24.174-.301l8.518-4.92 8.693 5.02v10.04zm17.39 0l-8.692 5.02-8.693-5.02V9.933l8.693-5.02 8.344 4.819a.696.696 0 0 1 .348.602v9.638zm-8.687 15.064l-8.345 4.82a.694.694 0 0 1-.695 0l-8.345-4.82V24.998l8.693-5.02 8.692 5.02v10.038z"/>
        <path fill="#130D05" d="M31.421 28.01l-13.91 8.032L3.604 28.01V11.945l13.909-8.031 13.91 8.031z"/>
        <path fill="#FFF" d="M16.754 19.22h-4.192v1.514h4.192v4.192h1.511v-4.192h4.192V19.22h-4.192v-4.193h-1.511z"/>
    </g>
</svg>
