<svg xmlns="http://www.w3.org/2000/svg" width="18" height="19" viewBox="0 0 18 19">
    <g fill="#747474" fill-rule="nonzero">
        <path d="M17.814 9.919l.008-.008c.012-.015.024-.027.032-.043l.008-.011c.008-.016.02-.031.027-.047 0-.004.004-.008.004-.008a.626.626 0 0 0 .024-.05c0-.004 0-.004.004-.008.008-.015.012-.035.02-.054 0-.004 0-.008.004-.008.004-.02.012-.035.012-.054 0-.008 0-.012.004-.02.003-.015.003-.03.007-.046.004-.023.004-.043.004-.066 0-.023 0-.043-.004-.066a.191.191 0 0 0-.007-.046c0-.008 0-.012-.004-.02l-.012-.054c0-.004 0-.008-.004-.008-.004-.02-.012-.035-.02-.054 0-.004 0-.004-.004-.008l-.024-.05c0-.004-.004-.008-.004-.008-.007-.015-.015-.031-.027-.046-.004-.004-.004-.008-.008-.012-.012-.016-.02-.031-.032-.043l-.008-.008c-.015-.015-.027-.034-.047-.05l-3.904-3.831a.688.688 0 0 0-.96 0 .659.659 0 0 0 0 .942l2.748 2.7H4.73a.672.672 0 0 0-.679.662c0 .368.304.667.679.667h10.926l-2.727 2.68a.659.659 0 0 0 0 .942.682.682 0 0 0 .955 0l3.88-3.812a.752.752 0 0 1 .051-.054z"/>
        <path d="M3.699 1.33H8.75a.672.672 0 0 0 .68-.663A.673.673 0 0 0 8.75 0H3.7C1.674 0 .024 1.62.024 3.61v11.776c0 1.99 1.65 3.61 3.675 3.61h4.97a.672.672 0 0 0 .678-.663.673.673 0 0 0-.679-.667h-4.97c-1.278 0-2.32-1.024-2.32-2.28V3.61c.004-1.26 1.042-2.28 2.32-2.28z"/>
    </g>
</svg>
