<svg xmlns="http://www.w3.org/2000/svg" width="15" height="14" viewBox="0 0 15 14">
    <path fill="#FFA629" fill-rule="nonzero" d="M14.956 5.282a.415.415 0 0 0-.335-.277l-4.673-.649L7.846.226a.418.418 0 0 0-.744.002L5.027 4.371l-4.672.68a.415.415 0 0 0-.335.276.395.395 0 0 0 .108.414l3.39 3.212-.784 4.548a.396.396 0 0 0 .166.397.417.417 0 0 0 .437.03l4.17-2.16 4.184 2.136c.062.03.126.045.19.045a.413.413 0 0 0 .416-.406.31.31 0 0 0-.013-.093l-.808-4.521 3.369-3.23c.12-.108.16-.27.11-.417z"/>
</svg>
